<?xml version="1.0" encoding="utf-8"?>
<!-- Generator: Adobe Illustrator 22.0.0, SVG Export Plug-In . SVG Version: 6.00 Build 0)  -->
<svg version="1.1" id="Layer_1" xmlns="http://www.w3.org/2000/svg" xmlns:xlink="http://www.w3.org/1999/xlink" x="0px" y="0px"
	 viewBox="0 0 244 68.9" style="enable-background:new 0 0 244 68.9;" xml:space="preserve">
<style type="text/css">
	.st0{clip-path:url(#SVGID_2_);}
	.st1{clip-path:url(#SVGID_12_);}
	.st2{clip-path:url(#SVGID_13_);}
	.st3{clip-path:url(#SVGID_14_);}
	.st4{clip-path:url(#SVGID_15_);}
	.st5{clip-path:url(#SVGID_16_);}
	.st6{clip-path:url(#SVGID_17_);}
	.st7{clip-path:url(#SVGID_18_);}
	.st8{clip-path:url(#SVGID_19_);}
	.st9{clip-path:url(#SVGID_20_);fill:#888C8C;}
	.st10{clip-path:url(#SVGID_20_);fill:#1D1D1B;}
	.st11{clip-path:url(#SVGID_22_);fill:#880C58;}
	.st12{clip-path:url(#SVGID_24_);fill:#880C58;}
	.st13{clip-path:url(#SVGID_26_);fill:#880C58;}
	.st14{clip-path:url(#SVGID_28_);fill:#880C58;}
	.st15{clip-path:url(#SVGID_30_);}
	.st16{clip-path:url(#SVGID_32_);}
	.st17{clip-path:url(#SVGID_34_);fill:#611242;}
	.st18{clip-path:url(#SVGID_36_);}
	.st19{clip-path:url(#SVGID_38_);fill:#611242;}
	.st20{clip-path:url(#SVGID_40_);}
	.st21{clip-path:url(#SVGID_42_);fill:#611242;}
	.st22{clip-path:url(#SVGID_44_);}
	.st23{clip-path:url(#SVGID_46_);fill:#611242;}
	.st24{clip-path:url(#SVGID_48_);}
	.st25{clip-path:url(#SVGID_50_);fill:#611242;}
</style>
<g>
	<g>
		<defs>
			<rect id="SVGID_1_" width="244" height="68.9"/>
		</defs>
		<clipPath id="SVGID_2_">
			<use xlink:href="#SVGID_1_"  style="overflow:visible;"/>
		</clipPath>
		<g class="st0">
			<g>
				<defs>
					<rect id="SVGID_3_" width="244" height="68.9"/>
				</defs>
				<defs>
					<rect id="SVGID_4_" width="244" height="68.9"/>
				</defs>
				<defs>
					<rect id="SVGID_5_" width="244" height="68.9"/>
				</defs>
				<defs>
					<rect id="SVGID_6_" width="244" height="68.9"/>
				</defs>
				<defs>
					<rect id="SVGID_7_" width="244" height="68.9"/>
				</defs>
				<defs>
					<rect id="SVGID_8_" width="244" height="68.9"/>
				</defs>
				<defs>
					<rect id="SVGID_9_" width="244" height="68.9"/>
				</defs>
				<defs>
					<rect id="SVGID_10_" width="244" height="68.9"/>
				</defs>
				<defs>
					<rect id="SVGID_11_" width="244" height="68.9"/>
				</defs>
				<clipPath id="SVGID_12_">
					<use xlink:href="#SVGID_3_"  style="overflow:visible;"/>
				</clipPath>
				<clipPath id="SVGID_13_" class="st1">
					<use xlink:href="#SVGID_4_"  style="overflow:visible;"/>
				</clipPath>
				<clipPath id="SVGID_14_" class="st2">
					<use xlink:href="#SVGID_5_"  style="overflow:visible;"/>
				</clipPath>
				<clipPath id="SVGID_15_" class="st3">
					<use xlink:href="#SVGID_6_"  style="overflow:visible;"/>
				</clipPath>
				<clipPath id="SVGID_16_" class="st4">
					<use xlink:href="#SVGID_7_"  style="overflow:visible;"/>
				</clipPath>
				<clipPath id="SVGID_17_" class="st5">
					<use xlink:href="#SVGID_8_"  style="overflow:visible;"/>
				</clipPath>
				<clipPath id="SVGID_18_" class="st6">
					<use xlink:href="#SVGID_9_"  style="overflow:visible;"/>
				</clipPath>
				<clipPath id="SVGID_19_" class="st7">
					<use xlink:href="#SVGID_10_"  style="overflow:visible;"/>
				</clipPath>
				<clipPath id="SVGID_20_" class="st8">
					<use xlink:href="#SVGID_11_"  style="overflow:visible;"/>
				</clipPath>
				<path class="st9" d="M175.1,64.8c0,0.1,0.1,0.2,0.1,0.2h0.3c0.1,0,0.2-0.1,0.2-0.2v-8.9c0-0.1-0.1-0.2-0.2-0.2h-0.2
					c-0.1,0-0.2,0.1-0.2,0.2L175.1,64.8L175.1,64.8z M169.1,62.3c0-1.2,0.9-2.2,2.1-2.2c1.2,0,2.1,1,2.1,2.2s-0.9,2.2-2.1,2.2
					S169.1,63.6,169.1,62.3 M168.5,62.3c0,1.5,1.2,2.8,2.6,2.8c1.5,0,2.6-1.2,2.6-2.8c0-1.5-1.2-2.7-2.6-2.7S168.5,60.8,168.5,62.3
					 M165.1,64.8c0,0.1,0.1,0.2,0.1,0.2h0.3c0.1,0,0.2-0.1,0.2-0.2V61c0-0.1,0.5-0.9,1.6-0.9c0.4,0,0.6,0.1,0.7,0.2
					c0.1,0,0.2,0,0.2-0.1l0.1-0.3c0-0.1,0-0.2-0.1-0.2s-0.4-0.2-0.8-0.2c-1,0-1.5,0.6-1.6,0.8l-0.1-0.5c0-0.1-0.1-0.1-0.2-0.1h-0.2
					c-0.1,0-0.2,0.1-0.2,0.2V64.8z M161.3,63.6c0,0.8,0.1,1.5,1.2,1.5c0.7,0,1.3-0.3,1.5-0.5c0.1-0.1,0.1-0.1,0-0.2l-0.1-0.2
					c0-0.1-0.1-0.1-0.2-0.1c-0.2,0.1-0.7,0.4-1.2,0.4c-0.6,0-0.7-0.3-0.7-1v-3.4h1.8c0.1,0,0.2-0.1,0.2-0.2v-0.2
					c0-0.1-0.1-0.2-0.2-0.2h-1.8v-1.4c0-0.1-0.1-0.2-0.2-0.2h-0.2c-0.1,0-0.2,0.1-0.2,0.2v1.4h-0.6c-0.1,0-0.2,0-0.2,0.1V60
					c0,0.1,0,0.2,0.2,0.2h0.6L161.3,63.6L161.3,63.6z M155.1,64.8c0,0.1,0.1,0.2,0.1,0.2h0.3c0.1,0,0.2-0.1,0.2-0.2V61
					c0.1-0.1,0.8-0.9,1.9-0.9c1,0,1.6,0.6,1.6,1.8v2.8c0,0.1,0.1,0.2,0.2,0.2h0.2c0.1,0,0.2-0.1,0.2-0.2V62c0-1.5-0.6-2.4-2.1-2.4
					c-1.1,0-1.8,0.6-1.9,0.8l-0.1-0.6c0-0.1-0.1-0.1-0.2-0.1h-0.1c-0.1,0-0.2,0.1-0.2,0.2L155.1,64.8L155.1,64.8z M149.1,62.3
					c0-1.2,0.9-2.2,2.1-2.2c1.2,0,2.1,1,2.1,2.2s-0.9,2.2-2.1,2.2S149.1,63.6,149.1,62.3 M148.6,62.3c0,1.5,1.2,2.8,2.6,2.8
					c1.5,0,2.6-1.2,2.6-2.8c0-1.5-1.2-2.7-2.6-2.7C149.7,59.6,148.6,60.8,148.6,62.3 M143,62.3c0,1.6,1.3,2.8,2.8,2.8
					c1.1,0,1.9-0.7,2.1-1c0.1-0.1,0-0.1,0-0.2l-0.1-0.1c-0.1-0.1-0.2-0.1-0.3,0c-0.1,0.2-0.7,0.8-1.6,0.8c-1.2,0-2.2-0.9-2.2-2.2
					c0-1.2,1-2.2,2.2-2.2c0.8,0,1.4,0.5,1.5,0.6s0.2,0.1,0.3,0l0.1-0.1c0.1-0.1,0.1-0.2,0-0.2c-0.2-0.3-0.9-0.8-1.9-0.8
					C144.3,59.6,143,60.7,143,62.3 M136.7,63.6c0,0.8,0.1,1.5,1.2,1.5c0.8,0,1.3-0.3,1.5-0.5c0.1-0.1,0.1-0.1,0-0.2l-0.1-0.2
					c0-0.1-0.1-0.1-0.2-0.1c-0.2,0.1-0.7,0.4-1.2,0.4c-0.6,0-0.7-0.3-0.7-1v-3.4h1.8c0.1,0,0.2-0.1,0.2-0.2v-0.2
					c0-0.1-0.1-0.2-0.2-0.2h-1.8v-1.4c0-0.1-0.1-0.2-0.2-0.2h-0.2c-0.1,0-0.2,0.1-0.2,0.2v1.4H136c-0.1,0-0.2,0-0.2,0.1V60
					c0,0.1,0,0.2,0.2,0.2h0.6L136.7,63.6L136.7,63.6z M130.5,64.8c0,0.1,0.1,0.2,0.1,0.2h0.2c0.1,0,0.2-0.1,0.2-0.2V61
					c0.1-0.1,0.8-0.9,1.9-0.9c1,0,1.6,0.6,1.6,1.8v2.8c0,0.1,0.1,0.2,0.2,0.2h0.2c0.1,0,0.2-0.1,0.2-0.2V62c0-1.5-0.6-2.4-2.1-2.4
					c-1.1,0-1.8,0.6-1.9,0.8l-0.1-0.6c0-0.1-0.1-0.1-0.2-0.1h-0.1c-0.1,0-0.2,0.1-0.2,0.2L130.5,64.8L130.5,64.8z M124.9,62
					c0.1-1.1,0.8-1.9,2-1.9c1.2,0,1.8,0.9,1.8,1.9H124.9z M124.3,62.3c0,1.5,1,2.8,2.6,2.8c0.8,0,1.6-0.4,1.9-0.6
					c0.1-0.1,0.1-0.2,0.1-0.2l-0.1-0.2c-0.1-0.1-0.1-0.1-0.2,0c-0.3,0.2-0.9,0.5-1.6,0.5c-1.2,0-2-0.9-2.1-2.1h4.2
					c0.2,0,0.2-0.3,0.2-0.5c0-1.4-1-2.4-2.4-2.4C125.3,59.6,124.3,60.8,124.3,62.3 M114.9,64.8c0,0.1,0.1,0.2,0.1,0.2h0.3
					c0.1,0,0.2-0.1,0.2-0.2V61c0.1-0.1,0.6-0.9,1.7-0.9c1,0,1.5,0.6,1.5,1.8v2.8c0,0.1,0.1,0.2,0.2,0.2h0.2c0.1,0,0.2-0.1,0.2-0.2
					V62c0-0.4,0-0.7-0.1-0.9c0.2-0.2,0.8-0.9,1.7-0.9s1.5,0.6,1.5,1.8v2.8c0,0.1,0.1,0.2,0.1,0.2h0.3c0.1,0,0.2-0.1,0.2-0.2V62
					c0-1.5-0.6-2.4-2.1-2.4c-1.1,0-1.8,0.7-2,1c-0.3-0.6-0.9-1-1.7-1c-1.1,0-1.7,0.6-1.8,0.8l-0.1-0.6c0-0.1-0.1-0.1-0.1-0.1H115
					c-0.1,0-0.2,0.1-0.2,0.2v4.9H114.9z M108.9,62.7c0,1.5,0.6,2.4,2.1,2.4c1,0,1.7-0.6,1.8-0.8l0.1,0.5c0,0.1,0.1,0.2,0.2,0.2h0.2
					c0.1,0,0.2-0.1,0.2-0.2v-4.9c0-0.1-0.1-0.2-0.2-0.2h-0.2c-0.1,0-0.2,0.1-0.2,0.2v3.7c0,0.1-0.6,0.9-1.7,0.9
					c-1,0-1.6-0.6-1.6-1.8v-2.8c0-0.1-0.1-0.2-0.2-0.2H109c-0.1,0-0.2,0.1-0.2,0.2L108.9,62.7L108.9,62.7z M103,62.3
					c0,1.6,1.3,2.8,2.8,2.8c1.1,0,1.9-0.7,2.1-1c0.1-0.1,0-0.1,0-0.2l-0.1-0.1c-0.1-0.1-0.2-0.1-0.3,0c-0.1,0.2-0.7,0.8-1.6,0.8
					c-1.2,0-2.2-0.9-2.2-2.2c0-1.2,1-2.2,2.2-2.2c0.8,0,1.4,0.5,1.5,0.6s0.2,0.1,0.3,0l0.1-0.1c0.1-0.1,0.1-0.2,0-0.2
					c-0.2-0.3-0.9-0.8-1.9-0.8C104.3,59.6,103,60.7,103,62.3 M97.4,62.3c0-1.2,0.9-2.2,2.1-2.2s2.1,1,2.1,2.2s-0.9,2.2-2.1,2.2
					S97.4,63.6,97.4,62.3 M96.8,62.3c0,1.5,1.2,2.8,2.6,2.8c1.5,0,2.6-1.2,2.6-2.8c0-1.5-1.2-2.7-2.6-2.7S96.8,60.8,96.8,62.3
					 M91.4,62.3c0-1.2,0.9-2.2,2.1-2.2c1,0,1.6,0.6,1.6,0.6v2.9c0,0.1-0.6,0.9-1.7,0.9C92.1,64.6,91.4,63.5,91.4,62.3 M90.8,62.3
					c0,1.5,1.1,2.8,2.4,2.8c1,0,1.7-0.6,1.8-0.8v0.5c0,0.1,0.1,0.2,0.2,0.2h0.1c0.1,0,0.2-0.1,0.2-0.2v-8.9c0-0.1-0.1-0.2-0.2-0.2
					h-0.2c-0.1,0-0.2,0.1-0.2,0.2v4.2c0,0-0.6-0.5-1.6-0.5C91.9,59.6,90.8,60.8,90.8,62.3 M82.6,62c0.1-1.1,0.8-1.9,2-1.9
					s1.8,0.9,1.8,1.9H82.6z M82,62.3c0,1.5,1,2.8,2.6,2.8c0.8,0,1.6-0.4,1.9-0.6c0.1-0.1,0.1-0.2,0.1-0.2l-0.1-0.2
					c-0.1-0.1-0.1-0.1-0.2,0c-0.3,0.2-0.9,0.5-1.6,0.5c-1.2,0-2-0.9-2.1-2.1h4.2c0.2,0,0.2-0.3,0.2-0.5c0-1.4-1-2.4-2.4-2.4
					C83,59.6,82,60.8,82,62.3 M78.8,63.6c0,0.8,0.1,1.5,1.2,1.5c0.7,0,1.3-0.3,1.5-0.5c0.1-0.1,0.1-0.1,0-0.2l-0.1-0.2
					c0-0.1-0.1-0.1-0.2-0.1c-0.2,0.1-0.7,0.4-1.2,0.4c-0.6,0-0.7-0.3-0.7-1v-3.4h1.8c0.1,0,0.2-0.1,0.2-0.2v-0.2
					c0-0.1-0.1-0.2-0.2-0.2h-1.8v-1.4c0-0.1-0.1-0.2-0.2-0.2h-0.2c-0.1,0-0.2,0.1-0.2,0.2v1.4h-0.6c-0.1,0-0.2,0-0.2,0.1V60
					c0,0.1,0,0.2,0.2,0.2h0.6L78.8,63.6L78.8,63.6z M73.1,62c0.1-1.1,0.8-1.9,2-1.9s1.8,0.9,1.8,1.9H73.1z M72.5,62.3
					c0,1.5,1,2.8,2.6,2.8c0.8,0,1.6-0.4,1.9-0.6c0.1-0.1,0.1-0.2,0.1-0.2L77,64.1c-0.1-0.1-0.1-0.1-0.2,0c-0.3,0.2-0.9,0.5-1.6,0.5
					c-1.2,0-2-0.9-2.1-2.1h4.2c0.2,0,0.2-0.3,0.2-0.5c0-1.4-1-2.4-2.4-2.4C73.5,59.6,72.5,60.8,72.5,62.3 M70.6,64.8
					c0,0.1,0.1,0.2,0.1,0.2H71c0.1,0,0.2-0.1,0.2-0.2v-8.9c0-0.1-0.1-0.2-0.2-0.2h-0.2c-0.1,0-0.2,0.1-0.2,0.2
					C70.6,55.9,70.6,64.8,70.6,64.8z M65.2,63.9v-3.1c0-0.1,0.6-0.7,1.6-0.7c1.2,0,2,1,2,2.2s-0.9,2.2-2.1,2.2
					C65.8,64.5,65.2,64,65.2,63.9 M65.2,64.5c0.1,0.1,0.7,0.5,1.6,0.5c1.6,0,2.7-1.2,2.7-2.8c0-1.5-1.1-2.8-2.5-2.8
					c-1,0-1.6,0.5-1.7,0.6v-0.4c0-0.1-0.1-0.1-0.2-0.1H65c-0.1,0-0.2,0.1-0.2,0.2v8.9c0,0.1,0.1,0.2,0.2,0.2l0,0
					c0.1,0,0.2-0.1,0.2-0.2V64.5z M54.9,64.8c0,0.1,0.1,0.2,0.1,0.2h0.3c0.1,0,0.2-0.1,0.2-0.2V61c0.1-0.1,0.6-0.9,1.7-0.9
					c1,0,1.5,0.6,1.5,1.8v2.8c0,0.1,0.1,0.2,0.2,0.2h0.3c0.1,0,0.2-0.1,0.2-0.2V62c0-0.4,0-0.7-0.1-0.9c0.2-0.2,0.7-0.9,1.7-0.9
					s1.5,0.6,1.5,1.8v2.8c0,0.1,0.1,0.2,0.1,0.2h0.3c0.1,0,0.2-0.1,0.2-0.2V62c0-1.5-0.6-2.4-2.1-2.4c-1.1,0-1.8,0.7-2,1
					c-0.3-0.6-0.9-1-1.7-1c-1.1,0-1.7,0.6-1.8,0.8l-0.1-0.6c0-0.1-0.1-0.1-0.1-0.1h-0.2c-0.1,0-0.2,0.1-0.2,0.2
					C54.9,59.9,54.9,64.8,54.9,64.8z M48.9,62.3c0-1.2,0.9-2.2,2.1-2.2c1.2,0,2.1,1,2.1,2.2s-0.9,2.2-2.1,2.2
					C49.9,64.5,48.9,63.6,48.9,62.3 M48.4,62.3c0,1.5,1.2,2.8,2.6,2.8c1.5,0,2.6-1.2,2.6-2.8c0-1.5-1.2-2.7-2.6-2.7
					C49.5,59.6,48.4,60.8,48.4,62.3 M42.8,62.3c0,1.6,1.3,2.8,2.8,2.8c1.1,0,1.9-0.7,2.1-1c0.1-0.1,0-0.1,0-0.2l-0.1-0.1
					c-0.1-0.1-0.2-0.1-0.3,0c-0.1,0.2-0.7,0.8-1.6,0.8c-1.2,0-2.2-0.9-2.2-2.2c0-1.2,1-2.2,2.2-2.2c0.8,0,1.4,0.5,1.5,0.6
					s0.2,0.1,0.3,0l0.1-0.1c0.1-0.1,0.1-0.2,0-0.2c-0.2-0.3-0.9-0.8-1.9-0.8C44.1,59.6,42.8,60.7,42.8,62.3"/>
				<path class="st10" d="M60.3,26.3c-4,0-6.8,2.2-7.7,3.1l-0.2-1.8c-0.1-0.5-0.4-0.7-0.9-0.7H51c-0.5,0-1,0.4-1,0.9v20
					c0,0.5,0.3,0.9,0.8,0.9h1c0.6,0,0.9-0.3,0.9-0.9V32.6c0.4-0.5,3.3-3.6,7.4-3.6c4,0,6.1,2.5,6.1,7.3v11.5c0,0.5,0.4,0.9,0.9,0.9
					h1c0.5,0,0.9-0.4,0.9-0.9V36.3C69.1,29.8,66.1,26.3,60.3,26.3"/>
				<path class="st10" d="M10.1,30.9c-4.6-1.5-7.5-3.2-7.5-6.9c0-2.8,2.4-5.9,7.5-5.9c3.3,0,6.3,1.9,6.6,2.1c0.7,0.4,1.1,0,1.3-0.3
					c0.1-0.2,0.2-0.4,0.4-0.6c0.3-0.5,0.2-0.9-0.2-1.3c-0.1-0.1-3.5-2.4-8-2.4C2.7,15.7,0,20.7,0,24c0,5.6,4.1,7.5,9,9.3
					c5.7,1.9,8.7,3.7,8.7,7.6c0,3.2-3.4,5.9-7.5,5.9c-4,0-7.2-2.4-8.3-3.5c-0.2-0.2-0.5-0.3-0.7-0.2c-0.2,0-0.4,0.2-0.6,0.4
					l-0.4,0.6c-0.5,0.7-0.1,1.1,0.2,1.3c0.7,0.6,4.4,3.8,9.9,3.8s10.2-3.8,10.2-8.4C20.5,35.5,16.7,33.1,10.1,30.9"/>
				<path class="st10" d="M44.9,26.8h-1.2c-0.4,0-0.7,0.2-0.9,0.6l-8.2,17.8l-9-17.8c-0.2-0.4-0.5-0.6-0.9-0.6h-1.2
					c-0.4,0-0.5,0.2-0.6,0.3c-0.1,0.2-0.1,0.6,0,0.9L33,48.3l-7.2,15.4c-0.2,0.4-0.1,0.7,0,0.8c0.1,0.1,0.3,0.3,0.6,0.3h1.2
					c0.3,0,0.8-0.2,0.9-0.6L45.4,28c0.2-0.3,0.2-0.7,0-0.9C45.4,27,45.3,26.8,44.9,26.8"/>
				<path class="st10" d="M77.8,36.3c0.4-4.3,3.6-7.4,7.9-7.4c4.8,0,7,3.7,7.1,7.4H77.8z M85.7,26.3c-6.3,0-10.8,4.8-10.8,11.4
					c0,6.8,4.4,11.5,10.8,11.5c3.4,0,6.9-1.5,7.9-2.6c0.5-0.5,0.4-0.9,0.2-1.2l-0.5-0.8c-0.4-0.6-0.8-0.4-1.3-0.1
					c-1.3,0.9-3.5,1.9-6.2,1.9c-4.4,0-7.8-3.3-8.1-8h16.8c1,0,1-1.4,1-2.3C95.7,30.5,91.5,26.3,85.7,26.3"/>
				<path class="st10" d="M131.1,45.4c-0.1-0.2-0.4-0.7-1.2-0.3c-0.6,0.4-2.9,1.4-4.8,1.4c-2.3,0-2.6-1.2-2.6-3.7V29.4h7.2
					c0.6,0,0.9-0.4,0.9-0.9v-0.7c0-0.5-0.4-0.9-0.9-0.9h-7.2v-5.7c0-0.5-0.4-0.9-0.9-0.9l0,0l-0.9,0.1c-0.5,0-0.9,0.4-0.9,0.9v5.6
					h-2.3c-0.5,0-0.9,0.3-0.9,0.8v0.9c0,0.4,0.1,0.9,0.9,0.9h2.3V43c0,3.4,0.4,6.3,5.1,6.3c3,0,5.4-1.3,6.3-2
					c0.4-0.3,0.5-0.7,0.2-1.2L131.1,45.4z"/>
				<path class="st10" d="M179.8,43.9l-0.6-0.5c-0.2-0.2-0.4-0.3-0.6-0.3c-0.2,0-0.5,0.1-0.7,0.4l-0.1,0.1c-0.7,0.7-2.7,3-6.4,3
					c-4.8,0-8.6-3.9-8.6-8.8s3.8-8.7,8.6-8.7c3.8,0,6,2.4,6,2.4c0.3,0.3,0.5,0.4,0.8,0.4l0,0c0.2,0,0.5-0.1,0.6-0.3l0.5-0.5
					c0.4-0.4,0.5-0.9,0.1-1.3c-1-1.3-3.9-3.5-8.1-3.5c-6.3,0-11.5,5.2-11.5,11.5c0,6.4,5,11.5,11.5,11.5c4.5,0,7.7-2.9,8.6-4.2
					C180.3,44.6,180.2,44.3,179.8,43.9"/>
				<path class="st10" d="M114.1,26.9L114.1,26.9c-0.6-0.2-1.7-0.7-3.4-0.7c-3.5,0-5.6,1.9-6.5,3l-0.2-1.6c-0.1-0.5-0.4-0.8-0.9-0.8
					h-0.6c-0.5,0-0.9,0.4-0.9,0.9v20c0,0.5,0.3,0.9,0.8,0.9h1.1c0.6,0,0.9-0.3,0.9-0.9V32.6c0.2-0.4,2.2-3.5,6.1-3.5
					c1.2,0,2.2,0.4,2.6,0.6h0.1c0.3,0.1,0.5,0.1,0.7,0.1c0.2-0.1,0.3-0.2,0.4-0.4l0.4-1.1c0.1-0.2,0.1-0.5,0-0.7
					C114.6,27.3,114.4,27.1,114.1,26.9"/>
				<path class="st10" d="M152.8,36.3h-15c0.4-4.3,3.6-7.4,7.9-7.4C150.6,28.9,152.8,32.6,152.8,36.3 M145.7,26.3
					c-6.3,0-10.8,4.8-10.8,11.4c0,6.8,4.4,11.5,10.8,11.5c3.4,0,6.9-1.5,7.9-2.6c0.5-0.5,0.4-0.9,0.2-1.2l-0.5-0.8
					c-0.4-0.6-0.8-0.4-1.3-0.1c-1.3,0.9-3.5,1.9-6.2,1.9c-4.4,0-7.8-3.3-8.1-8h16.8c1,0,1-1.4,1-2.3
					C155.7,30.5,151.5,26.3,145.7,26.3"/>
			</g>
			<g>
				<defs>
					<rect id="SVGID_21_" width="244" height="68.9"/>
				</defs>
				<clipPath id="SVGID_22_">
					<use xlink:href="#SVGID_21_"  style="overflow:visible;"/>
				</clipPath>
				<path class="st11" d="M222.8,64L222.8,64L222.8,64z"/>
			</g>
			<g>
				<defs>
					<rect id="SVGID_23_" width="244" height="68.9"/>
				</defs>
				<clipPath id="SVGID_24_">
					<use xlink:href="#SVGID_23_"  style="overflow:visible;"/>
				</clipPath>
				<path class="st12" d="M222.8,64L222.8,64L222.8,64z"/>
			</g>
			<g>
				<defs>
					<rect id="SVGID_25_" width="244" height="68.9"/>
				</defs>
				<clipPath id="SVGID_26_">
					<use xlink:href="#SVGID_25_"  style="overflow:visible;"/>
				</clipPath>
				<polygon class="st13" points="222.8,64 222.8,64 222.8,64 222.8,63.9 				"/>
			</g>
			<g>
				<defs>
					<rect id="SVGID_27_" width="244" height="68.9"/>
				</defs>
				<clipPath id="SVGID_28_">
					<use xlink:href="#SVGID_27_"  style="overflow:visible;"/>
				</clipPath>
				<path class="st14" d="M222.8,63.9L222.8,63.9l14.1-13.1L222.8,42V63.9z M209.9,0v13.2l-10.2-3.8L188.9,19l0,0l21-2.8v16.1
					l6.1-3.7v5.8l-6.1-2.1l-6.5,5.9L188.9,19l-0.1,33l33.9,12l0,0l-14-18.5l7.3,2.6l10.8-9.9l-2.5-0.9l8.5-10.8l-6.3-4.1l6.3-3.8
					v7.9L244,48.7V32.3L235.6,17l8.1-4.9L209.9,0z"/>
			</g>
			<g>
				<defs>
					<rect id="SVGID_29_" width="244" height="68.9"/>
				</defs>
				<clipPath id="SVGID_30_">
					<use xlink:href="#SVGID_29_"  style="overflow:visible;"/>
				</clipPath>
				<g class="st15">
					<g>
						<defs>
							<rect id="SVGID_31_" width="244" height="68.9"/>
						</defs>
						<clipPath id="SVGID_32_">
							<use xlink:href="#SVGID_31_"  style="overflow:visible;"/>
						</clipPath>
						<g class="st16">
							<g>
								<g>
									<defs>
										<rect id="SVGID_33_" x="200.9" y="6.2" width="24.1" height="11.1"/>
									</defs>
									<clipPath id="SVGID_34_">
										<use xlink:href="#SVGID_33_"  style="overflow:visible;"/>
									</clipPath>
									<polygon class="st17" points="216,15.5 209.9,13.2 209.9,16.3 									"/>
								</g>
							</g>
							<g>
								<defs>
									<rect id="SVGID_35_" width="244" height="68.9"/>
								</defs>
								<clipPath id="SVGID_36_">
									<use xlink:href="#SVGID_35_"  style="overflow:visible;"/>
								</clipPath>
								<g class="st18">
									<g>
										<g>
											<defs>
												<rect id="SVGID_37_" x="223.8" y="4.8" width="20.8" height="14.8"/>
											</defs>
											<clipPath id="SVGID_38_">
												<use xlink:href="#SVGID_37_"  style="overflow:visible;"/>
											</clipPath>
											<polygon class="st19" points="232.8,18.6 235.6,17 232.8,11.8 											"/>
										</g>
									</g>
									<g>
										<defs>
											<rect id="SVGID_39_" width="244" height="68.9"/>
										</defs>
										<clipPath id="SVGID_40_">
											<use xlink:href="#SVGID_39_"  style="overflow:visible;"/>
										</clipPath>
										<g class="st20">
											<g>
												<g>
													<defs>
														<rect id="SVGID_41_" x="190.3" y="31.3" width="27.5" height="15.1"/>
													</defs>
													<clipPath id="SVGID_42_">
														<use xlink:href="#SVGID_41_"  style="overflow:visible;"/>
													</clipPath>
													<polygon class="st21" points="199.3,42 208.8,45.5 203.4,38.3 													"/>
												</g>
											</g>
											<g>
												<defs>
													<rect id="SVGID_43_" width="244" height="68.9"/>
												</defs>
												<clipPath id="SVGID_44_">
													<use xlink:href="#SVGID_43_"  style="overflow:visible;"/>
												</clipPath>
												<g class="st22">
													<g>
														<g>
															<defs>
																<rect id="SVGID_45_" x="207" y="8.5" width="28.6" height="21.3"/>
															</defs>
															<clipPath id="SVGID_46_">
																<use xlink:href="#SVGID_45_"  style="overflow:visible;"/>
															</clipPath>
															<polygon class="st23" points="216,15.5 216,28.8 226.6,22.4 															"/>
														</g>
													</g>
													<g>
														<defs>
															<rect id="SVGID_47_" width="244" height="68.9"/>
														</defs>
														<clipPath id="SVGID_48_">
															<use xlink:href="#SVGID_47_"  style="overflow:visible;"/>
														</clipPath>
														<g class="st24">
															<g>
																<g>
																	<defs>
																		<rect id="SVGID_49_" x="207" y="27.5" width="26.4" height="21.5"/>
																	</defs>
																	<clipPath id="SVGID_50_">
																		<use xlink:href="#SVGID_49_"  style="overflow:visible;"/>
																	</clipPath>
																	<polygon class="st25" points="216,48 224.4,37.4 216,34.5 																	"/>
																</g>
															</g>
														</g>
													</g>
												</g>
											</g>
										</g>
									</g>
								</g>
							</g>
						</g>
					</g>
				</g>
			</g>
		</g>
	</g>
</g>
</svg>
